<svg xmlns="http://www.w3.org/2000/svg" viewBox="0 0 64 64" role="img" aria-label="Chaudhari Partners favicon">
  <rect width="64" height="64" rx="8" fill="#f7f4ec"/>
  <rect x="7.5" y="7.5" width="49" height="49" rx="4" fill="none" stroke="#254735" stroke-width="3"/>
  <path d="M29.25 42.6c-1.95 1.05-4.2 1.6-6.75 1.6-3.85 0-6.95-1.16-9.3-3.48-2.35-2.32-3.52-5.38-3.52-9.18 0-3.86 1.21-6.95 3.64-9.27 2.43-2.32 5.63-3.48 9.6-3.48 2.34 0 4.43.43 6.27 1.3v5.06c-1.72-1.08-3.69-1.62-5.92-1.62-2.32 0-4.18.71-5.58 2.13-1.4 1.42-2.1 3.35-2.1 5.78 0 2.45.66 4.39 1.98 5.82 1.32 1.43 3.12 2.15 5.4 2.15 2.38 0 4.47-.63 6.28-1.88v5.07z" fill="#254735"/>
  <path d="M34.65 44V19.2h9.28c3.02 0 5.38.72 7.08 2.15 1.7 1.43 2.55 3.43 2.55 5.99 0 2.51-.88 4.5-2.64 5.96-1.76 1.46-4.16 2.19-7.2 2.19h-3.45V44h-5.62zm5.62-13.03h3.02c1.54 0 2.68-.31 3.42-.94.74-.63 1.11-1.53 1.11-2.71 0-2.34-1.46-3.51-4.37-3.51h-3.18v7.16z" fill="#9b6f3c"/>
</svg>
